<svg width="21" height="20" viewBox="0 0 21 20" fill="none" xmlns="http://www.w3.org/2000/svg">
<path d="M20.5889 10.8877C20.5002 11.2167 20.3906 11.5352 20.1663 11.7963C19.749 12.2768 19.2221 12.4961 18.5908 12.4543C18.3822 12.4386 18.3039 12.5118 18.2361 12.705C18.1213 13.0496 17.9648 13.3786 17.8083 13.7598C17.9126 13.8538 18.0431 13.9478 18.1526 14.0679C18.7891 14.752 18.8204 15.8068 18.2048 16.5065C17.8657 16.893 17.5005 17.2585 17.1145 17.5979C16.3998 18.235 15.346 18.1984 14.6469 17.5457C14.5321 17.4413 14.433 17.3211 14.3495 17.2272C13.927 17.3943 13.5409 17.5457 13.1601 17.7076C13.1079 17.7285 13.0714 17.8225 13.061 17.8851C13.0245 18.1567 13.0401 18.4386 12.9723 18.6945C12.7532 19.4778 12.0437 19.9948 11.2299 20C10.8125 20 10.3952 20 9.97785 20C8.95013 19.9948 8.14152 19.2324 8.13631 18.2037C8.13631 17.8329 8.03719 17.6554 7.68244 17.5718C7.44769 17.5144 7.22336 17.3943 7.00426 17.2794C6.8947 17.2219 6.8321 17.2428 6.75907 17.3264C6.45649 17.6606 6.11218 17.9269 5.6531 18.0157C5.06881 18.1253 4.53148 18.0209 4.08805 17.624C3.70201 17.2794 3.3264 16.9086 2.98209 16.5222C2.35085 15.8068 2.39258 14.752 3.0499 14.0522C3.15424 13.9373 3.32118 13.8329 3.34205 13.7076C3.36291 13.5875 3.23249 13.4413 3.17511 13.3055C3.0812 13.0809 2.9873 12.8616 2.91427 12.6319C2.87253 12.5065 2.81515 12.4595 2.67951 12.4648C2.18391 12.4961 1.71961 12.4073 1.31792 12.094C0.853621 11.7232 0.597997 11.248 0.59278 10.6475C0.587563 10.2089 0.587563 9.77546 0.59278 9.33682C0.597997 8.37076 1.3753 7.55091 2.34042 7.54569C2.74211 7.54569 2.94557 7.44125 3.03425 7.04439C3.09686 6.77807 3.24814 6.53264 3.37856 6.24021C3.27423 6.14621 3.14902 6.05222 3.03947 5.93734C2.38737 5.24282 2.35607 4.18277 2.9873 3.46736C3.3264 3.09138 3.68636 2.73107 4.06197 2.39164C4.76624 1.76501 5.82525 1.79112 6.51387 2.43342C6.63386 2.54308 6.72777 2.67363 6.81645 2.77285C7.24945 2.60052 7.63549 2.45431 8.02154 2.29243C8.06849 2.27154 8.11022 2.19321 8.11544 2.13577C8.13631 1.92689 8.11022 1.71279 8.15196 1.51436C8.3189 0.725849 8.79884 0.229764 9.58137 0.0365526C9.61789 0.0261087 9.6544 0.0104439 9.69092 0C10.2909 0 10.8908 0 11.4855 0C11.5064 0.0104439 11.5325 0.02611 11.5533 0.0313319C12.3515 0.208878 12.8419 0.699738 13.0193 1.49869C13.0662 1.70757 13.0401 1.92689 13.061 2.14099C13.0662 2.19843 13.1132 2.27676 13.1601 2.29765C13.5409 2.45953 13.927 2.60574 14.36 2.77807C14.4382 2.68929 14.5269 2.56919 14.6365 2.46475C15.346 1.79112 16.405 1.75979 17.1301 2.41253C17.5005 2.74674 17.8605 3.10183 18.1943 3.47781C18.8204 4.18277 18.7943 5.2376 18.1526 5.93212C18.0431 6.05222 17.9126 6.14621 17.8083 6.24021C17.9648 6.62141 18.1213 6.95039 18.2361 7.29504C18.2987 7.48825 18.3822 7.56136 18.5908 7.54569C19.2221 7.50392 19.749 7.72324 20.1663 8.20366C20.3958 8.46475 20.5002 8.78329 20.5889 9.11227C20.5889 9.68668 20.5889 10.2872 20.5889 10.8877ZM1.76135 9.97911C1.76135 10.188 1.75613 10.3969 1.76135 10.6057C1.77178 11.0026 2.05349 11.2794 2.44475 11.2794C2.70559 11.2846 2.96643 11.2794 3.22728 11.2794C3.5768 11.2794 3.77504 11.4256 3.86895 11.7598C4.0411 12.3655 4.27586 12.9399 4.58365 13.483C4.75059 13.7807 4.71929 14.0209 4.48453 14.2663C4.30194 14.4543 4.11414 14.6319 3.93155 14.8198C3.62375 15.1332 3.62375 15.5091 3.93155 15.8225C4.20282 16.0992 4.47931 16.376 4.76102 16.6527C5.0636 16.9504 5.44443 16.9556 5.747 16.658C5.93481 16.4752 6.11218 16.2872 6.29998 16.1044C6.54518 15.8642 6.79037 15.8225 7.07729 15.9896C7.63549 16.3081 8.21978 16.5483 8.83536 16.7206C9.13272 16.8042 9.28401 17.0183 9.28923 17.3264C9.29444 17.5979 9.28923 17.8747 9.28923 18.1462C9.29444 18.5222 9.5605 18.8094 9.93089 18.8198C10.3587 18.8355 10.7917 18.8355 11.2194 18.8198C11.6003 18.8094 11.8663 18.517 11.8716 18.1305C11.8768 17.8642 11.8716 17.5979 11.8716 17.3316C11.8768 17.0078 12.0281 16.8042 12.3359 16.7154C12.9462 16.5483 13.5253 16.3081 14.0783 15.9948C14.3704 15.8277 14.6156 15.8642 14.8556 16.1044C15.0486 16.2924 15.2312 16.4856 15.4242 16.6684C15.7164 16.9504 16.092 16.9504 16.3841 16.6736C16.6815 16.3864 16.9684 16.0992 17.2553 15.8016C17.537 15.5144 17.5318 15.1332 17.2553 14.8407C17.0727 14.6475 16.8797 14.4648 16.6919 14.2715C16.4519 14.0261 16.4154 13.7859 16.5823 13.4935C16.8954 12.9452 17.1353 12.3603 17.3023 11.7546C17.391 11.4413 17.5944 11.2898 17.9179 11.2898C18.1839 11.2846 18.45 11.2898 18.716 11.2898C19.1125 11.2846 19.3994 11.0131 19.4046 10.6214C19.4151 10.2037 19.4151 9.7859 19.4046 9.36815C19.3942 8.9765 19.1073 8.70496 18.7108 8.70496C18.4552 8.70496 18.2048 8.70496 17.9492 8.70496C17.5892 8.70496 17.391 8.55875 17.2918 8.2141C17.1249 7.6188 16.8901 7.04961 16.5823 6.50653C16.405 6.19843 16.4415 5.96345 16.6867 5.71279C16.8693 5.5248 17.0571 5.34726 17.2397 5.15927C17.537 4.85117 17.5318 4.4752 17.2344 4.17232C16.9632 3.89556 16.6867 3.6188 16.405 3.34204C16.092 3.03394 15.7164 3.03394 15.4033 3.33681C15.2103 3.5248 15.0277 3.71801 14.8347 3.90078C14.6052 4.1201 14.36 4.15666 14.0835 4C13.5305 3.68146 12.941 3.44125 12.3254 3.26893C12.0176 3.18538 11.8663 2.97128 11.8663 2.64752C11.8663 2.3812 11.8663 2.11488 11.8663 1.84856C11.8611 1.46214 11.5951 1.17493 11.2142 1.16449C10.7917 1.15405 10.3691 1.15405 9.94655 1.16449C9.5605 1.17493 9.28923 1.46214 9.28923 1.84334C9.28401 2.11488 9.28923 2.39164 9.28923 2.66319C9.28401 2.97128 9.13272 3.18538 8.83536 3.26893C8.21978 3.44125 7.63549 3.68146 7.07729 4C6.79558 4.16188 6.55039 4.1201 6.31564 3.89556C6.12261 3.70757 5.94003 3.51436 5.747 3.33159C5.44964 3.04439 5.06882 3.03916 4.77667 3.32637C4.48975 3.60835 4.20282 3.89556 3.92111 4.18277C3.63419 4.48042 3.63419 4.8564 3.92111 5.15405C4.10892 5.34726 4.30194 5.53003 4.48453 5.72324C4.71407 5.95823 4.75581 6.20365 4.59408 6.48564C4.27586 7.03916 4.03588 7.62924 3.86373 8.24543C3.78026 8.55352 3.56637 8.69974 3.24293 8.70496C2.98209 8.70496 2.72125 8.70496 2.4604 8.70496C2.04306 8.71018 1.76657 8.98172 1.75613 9.4047C1.75613 9.58747 1.76135 9.78068 1.76135 9.97911Z" fill="black"/>
<path d="M10.5934 5.62403C12.9984 5.63448 14.9599 7.60315 14.9443 9.99479C14.9286 12.4073 12.9514 14.3708 10.5726 14.3447C8.1624 14.3186 6.23218 12.376 6.23218 9.98435C6.23218 7.58226 8.20414 5.61881 10.5934 5.62403ZM7.4164 9.98957C7.4164 11.7494 8.83537 13.1645 10.5987 13.1593C12.3515 13.1541 13.7601 11.7441 13.7601 9.98957C13.7601 8.22456 12.3515 6.80941 10.5882 6.80941C8.82494 6.81463 7.4164 8.22456 7.4164 9.98957Z" fill="black"/>
</svg>
