<svg width="20" height="20" viewBox="0 0 20 20" fill="none" xmlns="http://www.w3.org/2000/svg">
<path d="M0.492778 19.9997C0.0951892 19.8369 -0.00569083 19.5586 0.000243332 19.191C0.0773874 15.5782 3.19282 12.3697 7.21025 11.7868C7.70872 11.7133 8.22499 11.6818 8.73533 11.6713C9.63138 11.6555 10.5274 11.645 11.4235 11.6713C14.8653 11.7763 17.3814 13.2204 19.0252 15.8722C19.666 16.9067 19.939 18.0305 19.9984 19.2067C20.0162 19.5743 19.8915 19.8421 19.5058 19.9997C13.1681 19.9997 6.83046 19.9997 0.492778 19.9997ZM18.6454 18.8129C18.586 18.5188 18.5445 18.2458 18.4851 17.978C17.8205 15.0951 14.8238 12.8895 11.5006 12.8528C10.5037 12.8423 9.50083 12.837 8.50389 12.858C8.0707 12.8685 7.62564 12.9 7.20431 12.9893C4.35592 13.588 2.50446 15.1423 1.63214 17.6051C1.49565 17.9937 1.44224 18.4033 1.3473 18.8182C7.1331 18.8129 12.8655 18.8129 18.6454 18.8129Z" fill="black"/>
<path d="M9.9992 10.6127C6.69387 10.6127 3.99383 8.22339 3.99977 5.29847C4.0057 2.3788 6.69387 0 9.99327 0C13.3045 0 15.9986 2.38405 15.9927 5.31422C15.9927 8.23389 13.2986 10.6127 9.9992 10.6127ZM9.9814 9.43642C12.5509 9.44167 14.6516 7.5985 14.6634 5.32998C14.6753 3.0562 12.5924 1.19202 10.0289 1.18152C7.44751 1.17102 5.34089 3.01944 5.33495 5.29847C5.32902 7.57224 7.41784 9.42592 9.9814 9.43642Z" fill="black"/>
</svg>
