<svg width="20" height="20" viewBox="0 0 20 20" fill="none" xmlns="http://www.w3.org/2000/svg">
<path d="M2.39778 10.7738C2.1071 10.7738 1.86065 10.7738 1.62052 10.7738C0.672642 10.768 0.00912771 10.1763 0.00280853 9.31448C-0.00351066 8.14245 0.00280853 6.97042 0.00280853 5.80413C0.00280853 4.94808 0.00280853 4.09204 0.00280853 3.24174C0.00280853 2.31101 0.653685 1.72499 1.68371 1.72499C3.7564 1.72499 5.82278 1.71924 7.89547 1.73073C8.11664 1.73073 8.23671 1.67328 8.33149 1.49518C8.43892 1.2941 8.57162 1.11025 8.69801 0.914908C9.29201 0.00141065 10.3473 -0.257127 11.3647 0.271437C12.9066 1.07003 14.4421 1.88011 15.9777 2.69019C16.9761 3.21301 17.9746 3.73583 18.973 4.25865C20.003 4.80445 20.2874 5.7754 19.6934 6.71188C17.0836 10.8255 14.4674 14.9391 11.8513 19.0527C11.2446 20.0007 10.183 20.265 9.14035 19.7192C6.61268 18.392 4.085 17.0648 1.55101 15.7377C0.546258 15.2091 0.249257 14.2382 0.824302 13.3189C1.30456 12.5433 1.79746 11.7735 2.27771 10.9978C2.30931 10.9346 2.34723 10.8715 2.39778 10.7738ZM4.05973 11.9688C6.53685 13.2672 8.99501 14.5599 11.4721 15.8583C13.5827 12.5318 15.687 9.22256 17.7976 5.9018C15.6175 4.75274 13.4753 3.62667 11.371 2.51784C11.3963 2.88553 11.4469 3.24749 11.4532 3.61518C11.4595 5.02277 11.4532 6.43036 11.4595 7.83795C11.4595 7.99882 11.5037 8.16543 11.5732 8.30906C11.8197 8.83188 12.0977 9.33747 12.3315 9.86028C12.4326 10.0844 12.5022 10.3486 12.4769 10.5899C12.3695 11.5092 11.371 12.0033 10.4358 11.6068C9.91761 11.3828 9.41839 11.1128 8.91286 10.8715C8.81807 10.8255 8.71064 10.7795 8.60322 10.7795C7.38994 10.7738 6.17033 10.7738 4.95705 10.7795C4.88754 10.7795 4.79275 10.8312 4.75484 10.8829C4.51471 11.2334 4.29985 11.5896 4.05973 11.9688ZM5.72799 2.40868C4.38832 2.40868 3.04234 2.40868 1.70267 2.40868C1.06443 2.40868 0.761111 2.68445 0.761111 3.27047C0.761111 5.25833 0.761111 7.25194 0.761111 9.2398C0.761111 9.81432 1.05811 10.0844 1.68371 10.0844C3.97126 10.0844 6.26512 10.0786 8.55267 10.0901C8.74856 10.0901 8.96341 10.1361 9.14035 10.2165C9.65852 10.4463 10.1577 10.7106 10.6696 10.9519C11.0235 11.1185 11.3141 11.0898 11.5416 10.8887C11.7628 10.6933 11.7944 10.4348 11.6364 10.1131C11.3584 9.55004 11.074 8.99275 10.8023 8.42397C10.7391 8.28608 10.6949 8.11947 10.6949 7.97009C10.6885 6.40164 10.6885 4.83892 10.6885 3.27047C10.6885 2.68445 10.3852 2.40868 9.75331 2.40868C8.41364 2.40868 7.06766 2.40868 5.72799 2.40868ZM3.9207 10.7738C3.80064 10.7738 3.71849 10.7853 3.64266 10.7738C3.37725 10.7278 3.23823 10.8427 3.11185 11.0496C2.58736 11.8999 2.04391 12.7444 1.50678 13.589C1.08339 14.2554 1.23505 14.784 1.96176 15.1632C4.46415 16.4731 6.96655 17.7888 9.46895 19.0987C10.1957 19.4779 10.7833 19.34 11.2004 18.6793C13.7913 14.5886 16.3885 10.498 18.9793 6.40738C19.409 5.72944 19.251 5.21237 18.5054 4.82169C17.1341 4.09778 15.7565 3.37963 14.3853 2.65572C13.2352 2.05247 12.0914 1.44922 10.9413 0.845964C10.4421 0.587427 9.90497 0.627644 9.55742 0.989596C9.3552 1.19643 9.21618 1.44922 9.02028 1.71925C9.2541 1.71925 9.42471 1.72499 9.59533 1.71925C9.63325 1.71925 9.67748 1.69052 9.70908 1.66179C10.1261 1.21941 10.341 1.17919 10.8844 1.46645C13.3047 2.73616 15.7186 4.01161 18.1389 5.28131C18.6002 5.52261 18.695 5.85584 18.4296 6.27524C16.3379 9.57877 14.2463 12.8766 12.1483 16.1743C11.8829 16.5937 11.51 16.6857 11.0551 16.4444C8.5969 15.1517 6.13242 13.8647 3.67425 12.5721C3.25087 12.348 3.14976 12.009 3.38989 11.6241C3.56051 11.3483 3.73113 11.0783 3.9207 10.7738Z" fill="black"/>
<path d="M4.60313 9.31429C3.81955 9.31429 3.09284 9.13619 2.41037 8.79147C2.13233 8.64784 2.08178 8.55592 2.13233 8.26865C2.31559 7.20003 3.30138 6.40719 4.52098 6.34399C5.66475 6.28654 6.75165 7.01619 7.04234 8.0331C7.06761 8.13077 7.08657 8.22844 7.10553 8.32611C7.14976 8.53868 7.05497 8.67657 6.84644 8.77998C6.14501 9.13044 5.40567 9.32004 4.60313 9.31429ZM2.93487 8.25142C4.02177 8.72253 5.11498 8.73977 6.21452 8.28589C6.25876 8.26866 6.29667 8.15375 6.27771 8.10204C6.15765 7.76307 5.92384 7.49304 5.60156 7.2977C4.59681 6.67722 3.12444 7.19429 2.93487 8.25142Z" fill="black"/>
<path d="M3.20654 4.60339C3.20654 3.89672 3.82582 3.32219 4.59676 3.31645C5.38034 3.3107 6.01858 3.87949 6.01858 4.5919C6.01858 5.31006 5.39298 5.88458 4.6094 5.87884C3.83214 5.87309 3.21286 5.31006 3.20654 4.60339ZM5.26028 4.60339C5.26028 4.27591 4.97591 4.01163 4.62204 4.00588C4.26185 4.00014 3.96485 4.27591 3.96485 4.60913C3.96485 4.93087 4.26185 5.19515 4.61572 5.19515C4.97591 5.18941 5.26028 4.93087 5.26028 4.60339Z" fill="black"/>
<path d="M9.17201 6.59111C9.08986 6.87838 9.30471 7.32076 8.76758 7.31502C8.26205 7.30927 8.43898 6.88412 8.36947 6.59111C8.23045 6.59111 8.09143 6.59686 7.95241 6.59111C7.73755 6.57962 7.59221 6.44174 7.58589 6.26364C7.57957 6.09128 7.72491 5.93041 7.93345 5.91317C8.07247 5.90168 8.21781 5.91317 8.39475 5.91317C8.39475 5.78103 8.38843 5.66038 8.39475 5.54548C8.40739 5.31567 8.57168 5.16629 8.79286 5.17204C9.00771 5.17778 9.14673 5.32716 9.15305 5.55122C9.15937 5.66038 9.15305 5.7638 9.15305 5.90168C9.27312 5.90168 9.38054 5.90168 9.48797 5.90168C9.79129 5.90168 9.96191 6.02233 9.96191 6.24065C9.96822 6.46472 9.79761 6.59111 9.47533 6.59111C9.37422 6.59111 9.27311 6.59111 9.17201 6.59111Z" fill="black"/>
<path d="M5.38653 15.9733C5.39285 15.3585 5.9363 14.8644 6.61245 14.8702C7.28228 14.8702 7.85101 15.393 7.85101 16.002C7.85101 16.6167 7.29492 17.1166 6.60613 17.1166C5.92366 17.1108 5.38021 16.5995 5.38653 15.9733ZM6.59349 15.5826C6.35336 15.5768 6.16379 15.7434 6.15115 15.9733C6.13851 16.2088 6.34073 16.4099 6.59349 16.4156C6.84626 16.4214 7.05479 16.249 7.06111 16.0192C7.07375 15.7664 6.87786 15.5883 6.59349 15.5826Z" fill="black"/>
</svg>
