<svg width="20" height="20" viewBox="0 0 20 20" fill="none" xmlns="http://www.w3.org/2000/svg">
<path d="M9.29182 0C9.76136 0 10.2309 0 10.6952 0C11.0083 0.0417411 11.3265 0.073047 11.6396 0.130441C14.1751 0.584376 16.2724 1.8053 17.8584 3.84018C19.7053 6.20899 20.3523 8.90651 19.8201 11.8597C19.4184 14.0668 18.3645 15.9451 16.6794 17.4321C14.2951 19.5401 11.5039 20.3488 8.36316 19.8636C6.41193 19.5609 4.70069 18.7157 3.25031 17.38C1.59124 15.8564 0.563457 13.9781 0.156516 11.7606C0.0939094 11.411 0.0521719 11.0562 0 10.7066C0 10.237 0 9.76742 0 9.30305C0.0417375 8.99 0.0730407 8.67172 0.13043 8.36388C0.532153 6.10986 1.55472 4.18455 3.24509 2.63491C4.67982 1.32006 6.35976 0.495676 8.27968 0.161747C8.61358 0.0887002 8.9527 0.0469588 9.29182 0ZM9.99614 1.66965C5.41023 1.66965 1.67472 5.38461 1.6695 9.95004C1.66428 14.5833 5.36849 18.3139 9.97005 18.3191C14.5925 18.3244 18.3176 14.599 18.3176 9.97613C18.3176 5.38982 14.5925 1.67486 9.99614 1.66965Z" fill="black"/>
<path d="M9.15637 11.6407C9.15637 10.5607 9.15115 9.48063 9.15637 8.40058C9.15637 7.83708 9.52679 7.47706 10.0537 7.49793C10.4189 7.51358 10.7528 7.81099 10.8102 8.17101C10.8259 8.28058 10.8311 8.39015 10.8311 8.49972C10.8311 10.6076 10.8311 12.7156 10.8311 14.8235C10.8311 14.9539 10.8311 15.0844 10.7998 15.2096C10.7059 15.5905 10.3355 15.8462 9.93373 15.8201C9.52679 15.7888 9.21376 15.4914 9.17202 15.0896C9.16159 15.0009 9.16159 14.907 9.16159 14.8183C9.15637 13.7591 9.15637 12.6999 9.15637 11.6407Z" fill="black"/>
<path d="M10.8257 5.01964C10.81 5.48401 10.4396 5.83881 9.98047 5.82838C9.51093 5.81794 9.14572 5.43705 9.16137 4.97268C9.17703 4.5031 9.55788 4.14308 10.0274 4.16395C10.4918 4.18482 10.8413 4.56049 10.8257 5.01964Z" fill="black"/>
</svg>
