<svg width="21" height="20" viewBox="0 0 21 20" fill="none" xmlns="http://www.w3.org/2000/svg">
<path fill-rule="evenodd" clip-rule="evenodd" d="M3.08887 15.5556C3.42039 15.5556 3.73833 15.4385 3.97275 15.2301C4.20717 15.0217 4.33887 14.7391 4.33887 14.4444C4.33887 14.1498 4.20717 13.8671 3.97275 13.6588C3.73833 13.4504 3.42039 13.3333 3.08887 13.3333C2.75735 13.3333 2.4394 13.4504 2.20498 13.6588C1.97056 13.8671 1.83887 14.1498 1.83887 14.4444C1.83887 14.7391 1.97056 15.0217 2.20498 15.2301C2.4394 15.4385 2.75735 15.5556 3.08887 15.5556ZM3.08887 16.6667C3.75191 16.6667 4.38779 16.4325 4.85663 16.0158C5.32548 15.599 5.58887 15.0338 5.58887 14.4444C5.58887 13.8551 5.32548 13.2898 4.85663 12.8731C4.38779 12.4563 3.75191 12.2222 3.08887 12.2222C2.42583 12.2222 1.78994 12.4563 1.3211 12.8731C0.852259 13.2898 0.588867 13.8551 0.588867 14.4444C0.588867 15.0338 0.852259 15.599 1.3211 16.0158C1.78994 16.4325 2.42583 16.6667 3.08887 16.6667ZM10.5889 8.88889C10.2601 8.88889 9.96387 9.10889 9.96387 9.40111V19.4444C9.96387 19.5918 10.0297 19.7331 10.1469 19.8373C10.2641 19.9415 10.4231 20 10.5889 20C10.7546 20 10.9136 19.9415 11.0308 19.8373C11.148 19.7331 11.2139 19.5918 11.2139 19.4444V9.40111C11.2139 9.10889 10.9176 8.88889 10.5889 8.88889ZM11.2139 3.88889C11.2139 4.03623 11.148 4.17754 11.0308 4.28173C10.9136 4.38591 10.7546 4.44444 10.5889 4.44444C10.4231 4.44444 10.2641 4.38591 10.1469 4.28173C10.0297 4.17754 9.96387 4.03623 9.96387 3.88889V0.555556C9.96387 0.408213 10.0297 0.266905 10.1469 0.162719C10.2641 0.0585317 10.4231 0 10.5889 0C10.7546 0 10.9136 0.0585317 11.0308 0.162719C11.148 0.266905 11.2139 0.408213 11.2139 0.555556V3.88889ZM18.0889 20C17.9231 20 17.7641 19.9415 17.6469 19.8373C17.5297 19.7331 17.4639 19.5918 17.4639 19.4444V15.5122C17.4639 15.22 17.7601 15 18.0889 15C18.4176 15 18.7139 15.22 18.7139 15.5122V19.4444C18.7139 19.5918 18.648 19.7331 18.5308 19.8373C18.4136 19.9415 18.2546 20 18.0889 20ZM17.4639 10C17.4639 10.1473 17.5297 10.2887 17.6469 10.3928C17.7641 10.497 17.9231 10.5556 18.0889 10.5556C18.2546 10.5556 18.4136 10.497 18.5308 10.3928C18.648 10.2887 18.7139 10.1473 18.7139 10V0.555556C18.7139 0.408213 18.648 0.266905 18.5308 0.162719C18.4136 0.0585317 18.2546 0 18.0889 0C17.9231 0 17.7641 0.0585317 17.6469 0.162719C17.5297 0.266905 17.4639 0.408213 17.4639 0.555556V10Z" fill="black"/>
<path fill-rule="evenodd" clip-rule="evenodd" d="M3.08887 20C2.92311 20 2.76414 19.9415 2.64693 19.8373C2.52972 19.7331 2.46387 19.5918 2.46387 19.4444V18.29C2.46387 17.9978 2.76012 17.7778 3.08887 17.7778C3.41762 17.7778 3.71387 17.9978 3.71387 18.29V19.4444C3.71387 19.5918 3.64802 19.7331 3.53081 19.8373C3.4136 19.9415 3.25463 20 3.08887 20ZM2.46387 12.2222C2.46387 12.3696 2.52972 12.5109 2.64693 12.6151C2.76414 12.7192 2.92311 12.7778 3.08887 12.7778C3.25463 12.7778 3.4136 12.7192 3.53081 12.6151C3.64802 12.5109 3.71387 12.3696 3.71387 12.2222V0.555556C3.71387 0.408213 3.64802 0.266905 3.53081 0.162719C3.4136 0.0585317 3.25463 0 3.08887 0C2.92311 0 2.76414 0.0585317 2.64693 0.162719C2.52972 0.266905 2.46387 0.408213 2.46387 0.555556V12.2222ZM10.5889 6.66667C10.9204 6.66667 11.2383 6.5496 11.4728 6.34123C11.7072 6.13286 11.8389 5.85024 11.8389 5.55556C11.8389 5.26087 11.7072 4.97826 11.4728 4.76988C11.2383 4.56151 10.9204 4.44444 10.5889 4.44444C10.2573 4.44444 9.9394 4.56151 9.70498 4.76988C9.47056 4.97826 9.33887 5.26087 9.33887 5.55556C9.33887 5.85024 9.47056 6.13286 9.70498 6.34123C9.9394 6.5496 10.2573 6.66667 10.5889 6.66667ZM10.5889 7.77778C11.2519 7.77778 11.8878 7.54365 12.3566 7.1269C12.8255 6.71016 13.0889 6.14493 13.0889 5.55556C13.0889 4.96619 12.8255 4.40095 12.3566 3.98421C11.8878 3.56746 11.2519 3.33333 10.5889 3.33333C9.92583 3.33333 9.28994 3.56746 8.8211 3.98421C8.35226 4.40095 8.08887 4.96619 8.08887 5.55556C8.08887 6.14493 8.35226 6.71016 8.8211 7.1269C9.28994 7.54365 9.92583 7.77778 10.5889 7.77778ZM18.0889 12.7778C18.4204 12.7778 18.7383 12.6607 18.9728 12.4523C19.2072 12.244 19.3389 11.9614 19.3389 11.6667C19.3389 11.372 19.2072 11.0894 18.9728 10.881C18.7383 10.6726 18.4204 10.5556 18.0889 10.5556C17.7573 10.5556 17.4394 10.6726 17.205 10.881C16.9706 11.0894 16.8389 11.372 16.8389 11.6667C16.8389 11.9614 16.9706 12.244 17.205 12.4523C17.4394 12.6607 17.7573 12.7778 18.0889 12.7778ZM18.0889 13.8889C18.7519 13.8889 19.3878 13.6548 19.8566 13.238C20.3255 12.8213 20.5889 12.256 20.5889 11.6667C20.5889 11.0773 20.3255 10.5121 19.8566 10.0953C19.3878 9.67857 18.7519 9.44444 18.0889 9.44444C17.4258 9.44444 16.7899 9.67857 16.3211 10.0953C15.8523 10.5121 15.5889 11.0773 15.5889 11.6667C15.5889 12.256 15.8523 12.8213 16.3211 13.238C16.7899 13.6548 17.4258 13.8889 18.0889 13.8889Z" fill="black"/>
</svg>
