<svg width="12" height="15" viewBox="0 0 12 15" fill="none" xmlns="http://www.w3.org/2000/svg">
<path d="M1.96387 15C1.58574 15 1.26216 14.8602 0.993117 14.5807C0.723617 14.3007 0.588867 13.9643 0.588867 13.5714V6.42857C0.588867 6.03571 0.723617 5.69929 0.993117 5.41929C1.26216 5.13976 1.58574 5 1.96387 5H2.65137V3.57143C2.65137 2.58333 2.98664 1.74095 3.65718 1.04429C4.32726 0.348095 5.13783 0 6.08887 0C7.03991 0 7.8507 0.348095 8.52124 1.04429C9.19133 1.74095 9.52637 2.58333 9.52637 3.57143V5H10.2139C10.592 5 10.9158 5.13976 11.1853 5.41929C11.4543 5.69929 11.5889 6.03571 11.5889 6.42857V13.5714C11.5889 13.9643 11.4543 14.3007 11.1853 14.5807C10.9158 14.8602 10.592 15 10.2139 15H1.96387ZM6.08887 11.4286C6.46699 11.4286 6.7908 11.2888 7.0603 11.0093C7.32935 10.7293 7.46387 10.3929 7.46387 10C7.46387 9.60714 7.32935 9.27071 7.0603 8.99071C6.7908 8.71119 6.46699 8.57143 6.08887 8.57143C5.71074 8.57143 5.38716 8.71119 5.11812 8.99071C4.84862 9.27071 4.71387 9.60714 4.71387 10C4.71387 10.3929 4.84862 10.7293 5.11812 11.0093C5.38716 11.2888 5.71074 11.4286 6.08887 11.4286ZM4.02637 5H8.15137V3.57143C8.15137 2.97619 7.95085 2.47024 7.5498 2.05357C7.14876 1.6369 6.66178 1.42857 6.08887 1.42857C5.51595 1.42857 5.02897 1.6369 4.62793 2.05357C4.22689 2.47024 4.02637 2.97619 4.02637 3.57143V5Z" fill="black"/>
</svg>
