<svg width="16" height="16" viewBox="0 0 16 16" fill="none" xmlns="http://www.w3.org/2000/svg">
<path d="M11.2 0C10.36 0 9.528 0.216 8.8 0.648C8.512 0.8 8.24 1.008 8 1.232C7.76 1.008 7.488 0.8 7.2 0.648C6.472 0.216 5.64 0 4.8 0C3.52696 0 2.30606 0.505713 1.40589 1.40589C0.505713 2.30606 0 3.52696 0 4.8C0 6.07304 0.505713 7.29394 1.40589 8.19411C2.30606 9.09429 3.52696 9.6 4.8 9.6V8C3.95131 8 3.13737 7.66286 2.53726 7.06274C1.93714 6.46263 1.6 5.64869 1.6 4.8C1.6 3.95131 1.93714 3.13737 2.53726 2.53726C3.13737 1.93714 3.95131 1.6 4.8 1.6C5.25411 1.60205 5.70266 1.70004 6.11626 1.88754C6.52986 2.07503 6.89918 2.34781 7.2 2.688V16H8.8V2.688C8.864 2.616 8.928 2.544 9 2.48C9.30501 2.19022 9.66416 1.96342 10.0569 1.81259C10.4497 1.66177 10.8683 1.58987 11.2889 1.60102C11.7095 1.61216 12.1237 1.70613 12.5079 1.87755C12.8921 2.04897 13.2388 2.29447 13.528 2.6C14.1114 3.21535 14.4265 4.03721 14.404 4.88485C14.3815 5.73248 14.0232 6.53648 13.408 7.12C12.8 7.688 12.024 8 11.2 8V9.6C12.473 9.6 13.6939 9.09429 14.5941 8.19411C15.4943 7.29394 16 6.07304 16 4.8C16 3.52696 15.4943 2.30606 14.5941 1.40589C13.6939 0.505713 12.473 0 11.2 0Z" fill="#777777"/>
</svg>
