<svg width="16" height="8" viewBox="0 0 16 8" fill="none" xmlns="http://www.w3.org/2000/svg">
<path d="M11.2 0.5V0.671875C11.2 1.26875 11.58 1.84063 12.255 2.2625L12.78 2.59063C13.305 2.91875 13.6 3.36406 13.6 3.82812V4C13.6 4.27656 13.2425 4.5 12.8 4.5C12.3575 4.5 12 4.27656 12 4V3.82812C12 3.62969 11.8725 3.43906 11.6475 3.29844L11.1225 2.97031C10.1475 2.36094 9.6 1.53281 9.6 0.671875V0.5C9.6 0.223437 9.9575 0 10.4 0C10.8425 0 11.2 0.223437 11.2 0.5ZM14.4 4V3.82812C14.4 3.23125 14.02 2.65937 13.345 2.2375L12.82 1.90937C12.295 1.58125 12 1.13594 12 0.671875V0.5C12 0.223437 12.3575 0 12.8 0C13.2425 0 13.6 0.223437 13.6 0.5V0.671875C13.6 0.870313 13.7275 1.06094 13.9525 1.20156L14.4775 1.52969C15.4525 2.13906 16 2.96563 16 3.82812V4C16 4.27656 15.6425 4.5 15.2 4.5C14.7575 4.5 14.4 4.27656 14.4 4ZM0 6.5C0 5.94844 0.7175 5.5 1.6 5.5H10.4C10.8425 5.5 11.2 5.72344 11.2 6V7.5C11.2 7.77656 10.8425 8 10.4 8H1.6C0.7175 8 0 7.55156 0 7V6.5ZM5.6 6.5V7H9.6V6.5H5.6ZM12.8 5.5C13.2425 5.5 13.6 5.72344 13.6 6V7.5C13.6 7.77656 13.2425 8 12.8 8C12.3575 8 12 7.77656 12 7.5V6C12 5.72344 12.3575 5.5 12.8 5.5ZM15.2 5.5C15.6425 5.5 16 5.72344 16 6V7.5C16 7.77656 15.6425 8 15.2 8C14.7575 8 14.4 7.77656 14.4 7.5V6C14.4 5.72344 14.7575 5.5 15.2 5.5Z" fill="#777777"/>
</svg>
