<svg width="16" height="16" viewBox="0 0 16 16" fill="none" xmlns="http://www.w3.org/2000/svg">
<path d="M14.2224 8H8.00022C7.76447 8 7.53838 8.09365 7.37168 8.26035C7.20498 8.42705 7.11133 8.65314 7.11133 8.88889V14.2222C7.11133 14.458 7.20498 14.6841 7.37168 14.8508C7.53838 15.0175 7.76447 15.1111 8.00022 15.1111H14.2224C14.4582 15.1111 14.6843 15.0175 14.851 14.8508C15.0177 14.6841 15.1113 14.458 15.1113 14.2222V8.88889C15.1113 8.65314 15.0177 8.42705 14.851 8.26035C14.6843 8.09365 14.4582 8 14.2224 8ZM8.00022 14.2222V8.88889H14.2224V14.2222H8.00022Z" fill="#777777"/>
<path d="M9.33357 9.64453C9.25106 9.64453 9.17193 9.67731 9.11358 9.73565C9.05524 9.794 9.02246 9.87313 9.02246 9.95564V13.2845C9.02246 13.367 9.05524 13.4462 9.11358 13.5045C9.17193 13.5629 9.25106 13.5956 9.33357 13.5956C9.41608 13.5956 9.49522 13.5629 9.55356 13.5045C9.61191 13.4462 9.64468 13.367 9.64468 13.2845V9.95564C9.64468 9.87313 9.61191 9.794 9.55356 9.73565C9.49522 9.67731 9.41608 9.64453 9.33357 9.64453Z" fill="#777777"/>
<path d="M11.1109 9.69775C11.0284 9.69775 10.9493 9.73053 10.8909 9.78888C10.8326 9.84722 10.7998 9.92635 10.7998 10.0089V13.3333C10.7998 13.4158 10.8326 13.495 10.8909 13.5533C10.9493 13.6116 11.0284 13.6444 11.1109 13.6444C11.1934 13.6444 11.2726 13.6116 11.3309 13.5533C11.3892 13.495 11.422 13.4158 11.422 13.3333V10.0089C11.422 9.92635 11.3892 9.84722 11.3309 9.78888C11.2726 9.73053 11.1934 9.69775 11.1109 9.69775Z" fill="#777777"/>
<path d="M12.8892 9.64453C12.8067 9.64453 12.7276 9.67731 12.6692 9.73565C12.6109 9.794 12.5781 9.87313 12.5781 9.95564V13.2845C12.5781 13.367 12.6109 13.4462 12.6692 13.5045C12.7276 13.5629 12.8067 13.5956 12.8892 13.5956C12.9717 13.5956 13.0509 13.5629 13.1092 13.5045C13.1676 13.4462 13.2003 13.367 13.2003 13.2845V9.95564C13.2003 9.87313 13.1676 9.794 13.1092 9.73565C13.0509 9.67731 12.9717 9.64453 12.8892 9.64453Z" fill="#777777"/>
<path d="M8.00005 7.11119H12.4445V3.60897C12.4445 2.8623 10.0534 2.27563 7.11117 2.27563C4.16894 2.27563 1.77783 2.8623 1.77783 3.60897V12.4445C1.77783 13.1112 3.70228 13.6667 6.22228 13.7779V11.209C5.01619 11.1842 3.81946 10.9912 2.66672 10.6356V9.97341L2.77339 10.0179C3.88852 10.3771 5.05083 10.5689 6.22228 10.5867V8.88897C6.2237 8.66502 6.26743 8.44335 6.35117 8.23564C5.1016 8.2215 3.86063 8.02689 2.66672 7.65786V7.00008L2.77339 7.04008C4.06756 7.44483 5.4175 7.64282 6.77339 7.62675C7.10012 7.30258 7.53984 7.11777 8.00005 7.11119ZM2.66672 4.68452V4.0223L2.77339 4.0623C4.17708 4.49604 5.6426 4.69574 7.11117 4.65341C8.61849 4.71096 10.1239 4.4972 11.5556 4.0223V4.68897C10.1136 5.11442 8.61414 5.31235 7.11117 5.27563C5.60792 5.31157 4.10831 5.11212 2.66672 4.68452Z" fill="#777777"/>
</svg>
