<svg width="16" height="22" viewBox="0 0 16 22" fill="none" xmlns="http://www.w3.org/2000/svg">
<path d="M16 7.58615C16 6.11808 15.5508 4.68155 14.7068 3.45079C13.8629 2.22003 12.6605 1.24791 11.2455 0.652333C9.83049 0.0567552 8.26364 -0.136693 6.73498 0.0954498C5.20632 0.327593 3.78152 0.975353 2.6334 1.96017C1.48528 2.94499 0.663149 4.22455 0.266724 5.64367C-0.1297 7.06279 -0.0833891 8.5605 0.400041 9.95516C0.883471 11.3498 1.78325 12.5815 2.99025 13.5008C4.19725 14.4202 5.65962 14.9876 7.2 15.1345V17.4483H4C3.78783 17.4483 3.58434 17.5282 3.43432 17.6705C3.28429 17.8127 3.2 18.0057 3.2 18.2069C3.2 18.4081 3.28429 18.601 3.43432 18.7433C3.58434 18.8856 3.78783 18.9655 4 18.9655H7.2V21.2414C7.2 21.4426 7.28429 21.6355 7.43431 21.7778C7.58434 21.9201 7.78783 22 8 22C8.21217 22 8.41566 21.9201 8.56569 21.7778C8.71572 21.6355 8.8 21.4426 8.8 21.2414V18.9655H12C12.2122 18.9655 12.4157 18.8856 12.5657 18.7433C12.7157 18.601 12.8 18.4081 12.8 18.2069C12.8 18.0057 12.7157 17.8127 12.5657 17.6705C12.4157 17.5282 12.2122 17.4483 12 17.4483H8.8V15.1345C10.7724 14.9443 12.6004 14.0673 13.9304 12.673C15.2604 11.2787 15.9978 9.46621 16 7.58615ZM1.6 7.58615C1.6 6.38581 1.97535 5.21244 2.67859 4.2144C3.38184 3.21636 4.38138 2.43848 5.55083 1.97913C6.72027 1.51978 8.0071 1.3996 9.24858 1.63377C10.4901 1.86794 11.6304 2.44596 12.5255 3.29472C13.4205 4.14349 14.0301 5.22488 14.277 6.40215C14.524 7.57941 14.3972 8.79969 13.9128 9.90865C13.4284 11.0176 12.6081 11.9655 11.5556 12.6323C10.5032 13.2992 9.2658 13.6551 8 13.6551C6.30343 13.6526 4.6771 13.0124 3.47744 11.8748C2.27778 10.7372 1.60265 9.19497 1.6 7.58615Z" fill="#777777"/>
</svg>
