<svg width="16" height="17" viewBox="0 0 16 17" fill="none" xmlns="http://www.w3.org/2000/svg">
<path d="M10.1926 6.55714C11.7333 6.55714 12.6815 4.25 12.6815 2.79286C12.6815 1.57857 12.0889 0.121428 10.9037 0.121428C9.36296 0.121428 8.41481 2.42857 8.41481 3.88571C8.41481 5.1 9.00741 6.55714 10.1926 6.55714ZM5.68889 6.55714C6.87407 6.55714 7.46667 5.1 7.46667 3.88571C7.46667 2.30714 6.51852 0 4.97778 0C3.79259 0 3.2 1.45714 3.2 2.67143C3.08148 4.25 4.02963 6.55714 5.68889 6.55714ZM14.4593 5.34286C12.9185 5.34286 11.8519 7.52857 11.8519 9.10714C11.8519 10.2 12.3259 11.2929 13.3926 11.2929C14.9333 11.2929 16 9.10714 16 7.52857C16 6.43571 15.4074 5.34286 14.4593 5.34286ZM4.14815 9.10714C4.14815 7.52857 2.96296 5.34286 1.54074 5.34286C0.474074 5.34286 0 6.43571 0 7.52857C0 9.10714 1.18519 11.2929 2.60741 11.2929C3.67407 11.2929 4.14815 10.2 4.14815 9.10714ZM7.94074 8.86429C5.57037 8.86429 2.37037 12.75 2.37037 15.4214C2.37037 16.6357 3.2 17 4.14815 17C5.57037 17 6.63704 16.0286 7.94074 16.0286C9.12593 16.0286 10.1926 17 11.4963 17C12.4444 17 13.5111 16.7571 13.5111 15.4214C13.5111 12.75 10.3111 8.86429 7.94074 8.86429Z" fill="#777777"/>
</svg>
