<svg width="16" height="17" viewBox="0 0 16 17" fill="none" xmlns="http://www.w3.org/2000/svg">
<path d="M16 4.85714H11.0769V9.10714C11.0787 9.6442 11.2608 10.1655 11.5949 10.5896C11.9289 11.0136 12.396 11.3165 12.9231 11.4507V15.7857H12.3077C12.1445 15.7857 11.988 15.8497 11.8726 15.9635C11.7571 16.0774 11.6923 16.2318 11.6923 16.3929C11.6923 16.5539 11.7571 16.7083 11.8726 16.8222C11.988 16.936 12.1445 17 12.3077 17H14.7692C14.9324 17 15.089 16.936 15.2044 16.8222C15.3198 16.7083 15.3846 16.5539 15.3846 16.3929C15.3846 16.2318 15.3198 16.0774 15.2044 15.9635C15.089 15.8497 14.9324 15.7857 14.7692 15.7857H14.1538V11.4507C14.6809 11.3165 15.148 11.0136 15.482 10.5896C15.8161 10.1655 15.9982 9.6442 16 9.10714V4.85714ZM14.7692 9.10714C14.7692 9.42919 14.6396 9.73805 14.4087 9.96577C14.1779 10.1935 13.8649 10.3214 13.5385 10.3214C13.212 10.3214 12.899 10.1935 12.6682 9.96577C12.4374 9.73805 12.3077 9.42919 12.3077 9.10714V6.07143H14.7692V9.10714ZM5.53846 3.03571V2.42857C5.70167 2.42857 5.8582 2.3646 5.9736 2.25074C6.08901 2.13688 6.15385 1.98245 6.15385 1.82143C6.15385 1.6604 6.08901 1.50598 5.9736 1.39211C5.8582 1.27825 5.70167 1.21429 5.53846 1.21429V0.607143C5.53846 0.446119 5.47363 0.291689 5.35822 0.177828C5.24281 0.0639667 5.08629 0 4.92308 0L3.69231 0C3.5291 0 3.37257 0.0639667 3.25717 0.177828C3.14176 0.291689 3.07692 0.446119 3.07692 0.607143V1.21429C2.91371 1.21429 2.75719 1.27825 2.64178 1.39211C2.52637 1.50598 2.46154 1.6604 2.46154 1.82143C2.46154 1.98245 2.52637 2.13688 2.64178 2.25074C2.75719 2.3646 2.91371 2.42857 3.07692 2.42857V3.03571C3.07692 4.77214 0 6.76357 0 8.5V15.7857C0 16.1078 0.12967 16.4166 0.360484 16.6443C0.591298 16.8721 0.904349 17 1.23077 17H7.38462C7.70172 16.9726 7.99892 16.8359 8.224 16.6139C8.44908 16.3918 8.58766 16.0986 8.61539 15.7857V8.5C8.61539 6.86071 5.53846 4.675 5.53846 3.03571ZM4.30769 14.5714C3.49164 14.5714 2.70901 14.2516 2.13198 13.6823C1.55494 13.113 1.23077 12.3408 1.23077 11.5357C1.23077 10.7306 1.55494 9.95845 2.13198 9.38914C2.70901 8.81983 3.49164 8.5 4.30769 8.5C5.12374 8.5 5.90637 8.81983 6.48341 9.38914C7.06044 9.95845 7.38462 10.7306 7.38462 11.5357C7.38462 12.3408 7.06044 13.113 6.48341 13.6823C5.90637 14.2516 5.12374 14.5714 4.30769 14.5714Z" fill="#777777"/>
</svg>
